<?xml version="1.0" encoding="utf-8"?>
<!-- Generator: Adobe Illustrator 23.0.1, SVG Export Plug-In . SVG Version: 6.00 Build 0)  -->
<svg version="1.1" id="Layer_1" xmlns="http://www.w3.org/2000/svg" xmlns:xlink="http://www.w3.org/1999/xlink" x="0px" y="0px"
	 viewBox="0 0 187.35 80" style="enable-background:new 0 0 187.35 80;" xml:space="preserve">
<style type="text/css">
	.st0{fill:none;stroke:#050505;stroke-miterlimit:10;}
	.st1{fill:#4E443F;}
	.st2{fill:#DB5461;stroke:#050505;stroke-miterlimit:10;}
	.st3{fill:none;stroke:#4E443F;stroke-miterlimit:10;}
	.st4{fill:none;stroke:#FFFFFF;stroke-width:2;stroke-linejoin:round;}
	.st5{font-family:'AbrilFatface-Regular';}
	.st6{font-size:33.1352px;}
	.st7{fill:#FE6001;}
</style>
<path class="st0" d="M59.56-23.13"/>
<path class="st0" d="M-1.4,37.84"/>
<path class="st0" d="M59.56,98.81"/>
<g>
	<g>
		<g>
			<path class="st1" d="M29.46,11.82c0.26-4.9,7.85-6.93,11.29-4.58c-1.26,0.37-11.12,8.17-11.13,8.53
				c-0.05,3.49,22.75-12.01,13.19,3.2c-3.07,4.89-17.74,7.67-16.32,17.62c-3.82-0.66-2.52-7.45-8.04-3.73
				c-6.16,4.16,4.37,8.73,4.61,12.63C11.37,41.29,3.46,27.6,11.74,16.64C17.36,9.18,22.86,10.99,29.46,11.82z"/>
			<path class="st1" d="M33.55,40.77c-1.86,9.11,23.15,6.84,21.97,19.26c-0.37,3.84-4.15,6.21-6.72,8.45
				c-1.63,1.43-12.13,10.35-11.89,10.4c-2.7-0.64-1.64-7.85-2.25-9.41c-1.7-4.35-4-5.81-5.71-9.17
				C26.56,55.6,23.12,40.77,33.55,40.77z"/>
			<path class="st1" d="M78.74,42.6c0,6.22-7.46-0.01-7.96-3.67c-0.03-0.19,1.05-6.93,0.79-6.72C79.73,25.45,78.96,40.77,78.74,42.6
				z"/>
			<path class="st1" d="M65.87,15.18c1.44-2.93,6.08,0.41,5.47,2.93c-0.1,0.39-3.93,4.81-3.9,4.83c-1.23-0.78-3.79-7.09-3.84-8.07
				C64.27,14.08,65.03,14.19,65.87,15.18z"/>
		</g>
		<path class="st2" d="M78.96,41.05"/>
	</g>
	<circle class="st3" cx="40.32" cy="40.02" r="38.73"/>
</g>
<g>
	<text transform="matrix(1.218 0 0 1 50.3859 73.4666)" class="st4 st5 st6">realrth</text>
	<text transform="matrix(1.218 0 0 1 50.3859 73.4666)" class="st7 st5 st6">realrth</text>
</g>
</svg>
